<mxfile host="Electron" modified="2024-08-20T17:21:00.148Z" agent="Mozilla/5.0 (X11; Linux x86_64) AppleWebKit/537.36 (KHTML, like Gecko) draw.io/24.6.4 Chrome/124.0.6367.207 Electron/30.0.6 Safari/537.36" etag="FtE75PdyZ0KBhf2WixT7" version="24.6.4" type="device">
  <diagram name="Page-1" id="5f0bae14-7c28-e335-631c-24af17079c00">
    <mxGraphModel dx="1434" dy="835" grid="1" gridSize="10" guides="1" tooltips="1" connect="1" arrows="1" fold="1" page="1" pageScale="1" pageWidth="1100" pageHeight="850" background="none" math="0" shadow="0">
      <root>
        <mxCell id="0" />
        <mxCell id="1" parent="0" />
        <mxCell id="WYI8Hgwxbw-3lVaL65Fc-2" value="SKA System Components" style="verticalAlign=top;align=left;spacingTop=8;spacingLeft=2;spacingRight=12;shape=cube;size=10;direction=south;fontStyle=4;html=1;whiteSpace=wrap;" vertex="1" parent="1">
          <mxGeometry x="70" y="130" width="520" height="340" as="geometry" />
        </mxCell>
        <mxCell id="WYI8Hgwxbw-3lVaL65Fc-3" value="ska_cli" style="shape=module;align=left;spacingLeft=20;align=center;verticalAlign=top;whiteSpace=wrap;html=1;strokeColor=#00CC00;" vertex="1" parent="1">
          <mxGeometry x="250" y="170" width="100" height="50" as="geometry" />
        </mxCell>
        <mxCell id="WYI8Hgwxbw-3lVaL65Fc-15" style="edgeStyle=orthogonalEdgeStyle;rounded=0;orthogonalLoop=1;jettySize=auto;html=1;entryX=0.5;entryY=0;entryDx=0;entryDy=0;startArrow=none;startFill=0;" edge="1" parent="1" source="WYI8Hgwxbw-3lVaL65Fc-4" target="WYI8Hgwxbw-3lVaL65Fc-6">
          <mxGeometry relative="1" as="geometry" />
        </mxCell>
        <mxCell id="WYI8Hgwxbw-3lVaL65Fc-4" value="ska_server" style="shape=module;align=left;spacingLeft=20;align=center;verticalAlign=top;whiteSpace=wrap;html=1;strokeColor=#00CC00;" vertex="1" parent="1">
          <mxGeometry x="250" y="290" width="100" height="50" as="geometry" />
        </mxCell>
        <mxCell id="WYI8Hgwxbw-3lVaL65Fc-5" value="ska_frontend" style="shape=module;align=left;spacingLeft=20;align=center;verticalAlign=top;whiteSpace=wrap;html=1;strokeColor=#009900;" vertex="1" parent="1">
          <mxGeometry x="90" y="290" width="100" height="50" as="geometry" />
        </mxCell>
        <mxCell id="WYI8Hgwxbw-3lVaL65Fc-6" value="Keycloak" style="shape=module;align=left;spacingLeft=20;align=center;verticalAlign=top;whiteSpace=wrap;html=1;strokeColor=#990000;" vertex="1" parent="1">
          <mxGeometry x="250" y="400" width="100" height="50" as="geometry" />
        </mxCell>
        <mxCell id="WYI8Hgwxbw-3lVaL65Fc-7" value="ska_llm" style="shape=module;align=left;spacingLeft=20;align=center;verticalAlign=top;whiteSpace=wrap;html=1;strokeColor=#00CC00;" vertex="1" parent="1">
          <mxGeometry x="450" y="230" width="100" height="50" as="geometry" />
        </mxCell>
        <mxCell id="WYI8Hgwxbw-3lVaL65Fc-8" value="PostgreSQL" style="shape=module;align=left;spacingLeft=20;align=center;verticalAlign=top;whiteSpace=wrap;html=1;strokeColor=#990000;" vertex="1" parent="1">
          <mxGeometry x="450" y="340" width="100" height="50" as="geometry" />
        </mxCell>
        <mxCell id="WYI8Hgwxbw-3lVaL65Fc-12" style="edgeStyle=orthogonalEdgeStyle;rounded=0;orthogonalLoop=1;jettySize=auto;html=1;exitX=1;exitY=0.5;exitDx=0;exitDy=0;entryX=0.087;entryY=0.51;entryDx=0;entryDy=0;entryPerimeter=0;startArrow=none;startFill=0;" edge="1" parent="1" source="WYI8Hgwxbw-3lVaL65Fc-5" target="WYI8Hgwxbw-3lVaL65Fc-4">
          <mxGeometry relative="1" as="geometry" />
        </mxCell>
        <mxCell id="WYI8Hgwxbw-3lVaL65Fc-13" style="edgeStyle=orthogonalEdgeStyle;rounded=0;orthogonalLoop=1;jettySize=auto;html=1;entryX=0.1;entryY=0.519;entryDx=0;entryDy=0;entryPerimeter=0;startArrow=none;startFill=0;" edge="1" parent="1" source="WYI8Hgwxbw-3lVaL65Fc-5" target="WYI8Hgwxbw-3lVaL65Fc-6">
          <mxGeometry relative="1" as="geometry">
            <Array as="points">
              <mxPoint x="140" y="426" />
            </Array>
          </mxGeometry>
        </mxCell>
        <mxCell id="WYI8Hgwxbw-3lVaL65Fc-16" style="edgeStyle=orthogonalEdgeStyle;rounded=0;orthogonalLoop=1;jettySize=auto;html=1;entryX=0;entryY=0;entryDx=0;entryDy=35;entryPerimeter=0;" edge="1" parent="1" source="WYI8Hgwxbw-3lVaL65Fc-4" target="WYI8Hgwxbw-3lVaL65Fc-7">
          <mxGeometry relative="1" as="geometry">
            <Array as="points">
              <mxPoint x="390" y="315" />
              <mxPoint x="390" y="265" />
            </Array>
          </mxGeometry>
        </mxCell>
        <mxCell id="WYI8Hgwxbw-3lVaL65Fc-17" style="edgeStyle=orthogonalEdgeStyle;rounded=0;orthogonalLoop=1;jettySize=auto;html=1;entryX=0;entryY=0;entryDx=0;entryDy=15;entryPerimeter=0;" edge="1" parent="1" source="WYI8Hgwxbw-3lVaL65Fc-3" target="WYI8Hgwxbw-3lVaL65Fc-7">
          <mxGeometry relative="1" as="geometry">
            <Array as="points">
              <mxPoint x="430" y="195" />
              <mxPoint x="430" y="245" />
            </Array>
          </mxGeometry>
        </mxCell>
        <mxCell id="WYI8Hgwxbw-3lVaL65Fc-18" style="edgeStyle=orthogonalEdgeStyle;rounded=0;orthogonalLoop=1;jettySize=auto;html=1;entryX=0;entryY=0;entryDx=0;entryDy=15;entryPerimeter=0;" edge="1" parent="1" source="WYI8Hgwxbw-3lVaL65Fc-3" target="WYI8Hgwxbw-3lVaL65Fc-8">
          <mxGeometry relative="1" as="geometry">
            <Array as="points">
              <mxPoint x="340" y="280" />
              <mxPoint x="430" y="280" />
              <mxPoint x="430" y="355" />
            </Array>
          </mxGeometry>
        </mxCell>
        <mxCell id="WYI8Hgwxbw-3lVaL65Fc-19" style="edgeStyle=orthogonalEdgeStyle;rounded=0;orthogonalLoop=1;jettySize=auto;html=1;entryX=0;entryY=0;entryDx=0;entryDy=35;entryPerimeter=0;" edge="1" parent="1" source="WYI8Hgwxbw-3lVaL65Fc-4" target="WYI8Hgwxbw-3lVaL65Fc-8">
          <mxGeometry relative="1" as="geometry">
            <Array as="points">
              <mxPoint x="370" y="315" />
              <mxPoint x="370" y="375" />
            </Array>
          </mxGeometry>
        </mxCell>
      </root>
    </mxGraphModel>
  </diagram>
</mxfile>
